# xmcd
#
# Track frame offsets: 
#        150
#        15799
#        30545
#        43978
#
# Disc length: 817 seconds
#
# Revision: 0
# Processed by: cddbd v1.5.2PL0 Copyright (c) Steve Scherf et al.
# Submitted via: ExactAudioCopy v0.95b3
#
DISCID=23032f04
DTITLE=Count Floyd - Count Floyd  FLAC
DYEAR=1900
DGENRE=
TTITLE0=The Gory Story Of Duane And Debbie
TTITLE1=Treat You Like A Lady
TTITLE2=Reggae Christmas Eve In Transylvania
TTITLE3=Count Floyd Is Back
EXTD=
EXTT0=
EXTT1=
EXTT2=
EXTT3=
PLAYORDER=
